<?xml version="1.0" encoding="utf-8"?>
<!-- Generator: Adobe Illustrator 16.0.0, SVG Export Plug-In . SVG Version: 6.00 Build 0)  -->
<!DOCTYPE svg PUBLIC "-//W3C//DTD SVG 1.1//EN" "http://www.w3.org/Graphics/SVG/1.1/DTD/svg11.dtd">
<svg version="1.1" id="Layer_1" xmlns="http://www.w3.org/2000/svg" xmlns:xlink="http://www.w3.org/1999/xlink" x="0px" y="0px"
	 width="150px" height="40px" viewBox="0 0 150 40" enable-background="new 0 0 150 40" xml:space="preserve">
<path fill="#454751" d="M139.165,28H13.836C12.215,28,11,27.1,11,26V14c0-1.1,1.215-2,2.836-2h125.329c1.619,0,2.835,0.9,2.835,2v12
	C142,27.1,140.784,28,139.165,28z"/>
<path fill="#7F7F7F" d="M134.436,22.25H15.565c-1.537,0-2.69-0.254-2.69-0.562v-3.375c0-0.31,1.153-0.562,2.69-0.562h118.871
	c1.536,0,2.689,0.253,2.689,0.562v3.375C137.125,21.996,135.972,22.25,134.436,22.25z"/>
<circle fill="#D63F67" cx="44" cy="20" r="20"/>
<g id="Empty">
	<path fill="#FFFFFF" d="M39.996,13.743c-1.25,0.817-2.687,2.386-2.141,5.159c-1.688,0.465-2.944,1.98-2.944,3.813
		c0,2.181,1.767,3.947,3.947,3.947h11.901c2.18,0,3.947-1.767,3.947-3.947c0-1.8-1.098-3.241-2.851-3.79
		c0.151-0.814,0.082-2.214-1.259-3.192c-0.748-0.545-2.314-1.056-3.827,0.116C44.963,12.28,41.299,12.89,39.996,13.743z"/>
</g>
</svg>
